<?xml version="1.0" standalone="no"?>
<!DOCTYPE svg PUBLIC "-//W3C//DTD SVG 20010904//EN"
 "http://www.w3.org/TR/2001/REC-SVG-20010904/DTD/svg10.dtd">
<svg version="1.0" xmlns="http://www.w3.org/2000/svg"
 width="2000.000000pt" height="2000.000000pt" viewBox="0 0 2000.000000 2000.000000"
 preserveAspectRatio="xMidYMid meet">
<metadata>
Created by potrace 1.11, written by Peter Selinger 2001-2013
</metadata>
<g transform="translate(0.000000,2000.000000) scale(0.100000,-0.100000)"
fill="#000000" stroke="none">
<path d="M8070 17765 c-339 -47 -608 -186 -849 -441 -182 -193 -299 -407 -358
-654 -19 -82 -26 -143 -30 -275 -5 -162 1 -227 34 -405 4 -22 -7 -33 -104 -96
-286 -189 -499 -420 -627 -679 -60 -122 -85 -193 -118 -335 -19 -81 -22 -125
-22 -300 l-1 -205 -46 -60 c-71 -91 -224 -234 -320 -298 -197 -131 -422 -207
-661 -224 l-88 -6 0 -398 c0 -220 -3 -399 -6 -399 -4 0 -70 20 -148 44 -283
89 -569 163 -821 212 -127 24 -325 23 -426 -4 -215 -57 -357 -197 -404 -396
-92 -389 219 -958 880 -1613 274 -272 533 -495 798 -685 l127 -93 0 -642 0
-643 -55 0 -55 0 0 -125 0 -125 -1024 -2 -1024 -3 260 -614 259 -613 -259
-612 c-142 -336 -257 -614 -255 -618 2 -5 463 -8 1024 -8 l1019 0 0 -70 0 -70
55 0 55 0 0 -834 0 -833 88 -6 c342 -25 639 -163 879 -410 229 -236 356 -521
380 -849 l6 -88 3792 0 3792 0 7 91 c10 131 32 236 75 359 72 205 180 369 344
527 232 221 517 347 840 370 l87 6 0 833 0 834 60 0 60 0 0 70 0 70 1019 0
c561 0 1022 3 1024 8 2 4 -113 282 -255 618 l-259 612 259 613 260 614 -1024
3 -1024 2 0 125 0 125 -60 0 -60 0 0 1138 0 1138 96 109 c299 343 557 723 701
1030 246 529 190 932 -153 1095 -155 75 -374 76 -621 4 -22 -6 -23 -4 -23 50
l0 56 -46 0 c-91 0 -261 32 -379 71 -202 67 -353 159 -509 309 -246 237 -386
535 -412 879 l-7 91 -123 0 -123 0 -63 83 c-84 111 -271 302 -393 400 -251
203 -575 373 -901 472 l-81 25 -18 67 c-63 241 -210 527 -370 723 -68 83 -221
234 -305 301 -230 185 -563 339 -855 398 -369 74 -784 43 -1120 -83 l-63 -24
-127 54 c-426 183 -854 257 -1205 209z m492 -300 c125 -19 265 -54 408 -104
141 -49 190 -69 190 -79 0 -4 -22 -23 -48 -42 -214 -160 -405 -432 -477 -680
-8 -29 -12 -32 83 82 452 540 1115 803 1752 692 540 -93 1006 -435 1240 -909
79 -159 121 -282 150 -433 11 -58 22 -107 23 -109 2 -1 55 -16 117 -32 624
-161 1108 -506 1408 -1003 315 -522 343 -1161 68 -1582 -178 -274 -452 -420
-811 -433 -165 -6 -267 4 -435 42 -115 26 -152 24 -212 -13 -19 -12 -45 -40
-58 -64 -25 -43 -25 -44 -24 -308 1 -278 9 -374 60 -674 29 -173 26 -196 -40
-264 -65 -69 -210 -175 -349 -256 -378 -220 -937 -402 -1562 -506 -335 -56
-626 -80 -964 -80 -350 0 -564 22 -814 81 -71 17 -127 33 -125 35 2 1 35 -1
73 -6 231 -31 764 -41 1036 -20 859 66 1607 317 2157 724 103 76 254 201 260
216 2 6 -183 60 -208 60 -6 0 -72 -41 -147 -90 -472 -313 -1234 -578 -1926
-671 -206 -27 -536 -36 -692 -18 l-120 13 140 8 c833 43 1525 237 2085 583 92
58 323 226 335 245 13 21 -245 81 -429 99 -155 15 -462 13 -659 -4 -738 -65
-1517 -294 -1992 -585 -213 -130 -219 -133 -304 -127 -135 10 -194 74 -240
257 -97 385 -146 736 -197 1421 -17 222 -17 241 -1 314 32 148 93 248 213 345
739 596 2159 815 3339 515 298 -75 575 -189 790 -324 l100 -62 -80 81 c-386
394 -924 666 -1509 765 -463 78 -976 53 -1471 -71 -581 -146 -1106 -407 -1497
-746 -114 -98 -168 -122 -283 -122 -120 -1 -177 25 -277 126 -208 212 -317
444 -350 742 -39 358 114 721 414 985 140 123 272 213 437 295 l88 45 -38 113
c-100 298 -91 618 25 872 108 235 311 448 535 561 124 62 254 99 421 119 62 7
292 -3 392 -19z m-2362 -3636 c0 -12 -124 -123 -200 -180 -157 -116 -327 -207
-507 -269 l-93 -33 0 -283 c0 -156 -3 -284 -7 -284 -5 1 -42 18 -83 38 l-75
37 0 309 0 309 87 23 c281 75 560 235 752 433 l50 51 38 -73 c21 -39 38 -75
38 -78z m7976 -70 c117 -84 245 -154 364 -200 58 -22 113 -43 123 -47 28 -11
-193 -97 -224 -87 -38 12 -177 84 -249 128 -74 47 -209 147 -228 170 -10 11
-11 40 -6 116 l7 100 67 -62 c37 -34 103 -87 146 -118z m1464 -329 c69 -19
123 -63 154 -123 26 -52 28 -66 28 -155 -1 -54 -6 -112 -12 -128 -6 -16 -11
-30 -10 -32 4 -7 -17 -77 -47 -156 -48 -127 -149 -324 -226 -444 -37 -56 -67
-105 -67 -108 0 -3 -39 -60 -86 -125 -77 -107 -97 -134 -147 -189 -7 -8 -49
-59 -92 -112 -43 -54 -82 -98 -87 -98 -4 0 -8 -5 -8 -11 0 -6 -15 -25 -32 -42
-18 -18 -73 -77 -123 -131 -191 -210 -509 -511 -649 -616 -28 -20 -109 -89
-181 -151 -71 -63 -143 -123 -159 -133 -16 -10 -66 -51 -110 -90 -45 -40 -97
-83 -116 -96 -19 -13 -70 -53 -112 -89 -75 -64 -114 -95 -238 -191 -65 -50
-139 -108 -218 -172 -29 -23 -60 -46 -70 -51 -9 -6 -33 -24 -52 -42 -19 -17
-51 -41 -70 -53 -20 -11 -46 -32 -59 -46 -14 -14 -28 -26 -33 -26 -9 0 -89
-59 -149 -109 -20 -17 -41 -31 -46 -31 -6 0 -17 -7 -24 -16 -12 -14 -89 -69
-141 -100 -10 -6 -27 -19 -38 -29 -11 -10 -29 -23 -39 -29 -10 -6 -57 -37
-105 -68 -164 -110 -310 -202 -394 -250 -30 -17 -61 -18 -397 -18 l-365 0 -7
28 c-15 52 -8 293 11 382 65 302 225 661 470 1050 38 60 188 274 206 293 4 5
30 -1 56 -13 27 -12 57 -23 66 -25 31 -7 242 -111 361 -179 134 -76 204 -106
247 -106 101 0 -56 181 -265 307 -55 33 -153 88 -217 122 -112 59 -117 64
-107 84 7 12 71 81 144 152 73 72 148 155 167 185 34 53 69 92 223 241 l72 70
34 -15 c19 -8 76 -31 128 -51 131 -52 268 -115 386 -178 55 -30 143 -77 196
-105 56 -31 115 -55 143 -58 44 -6 46 -6 46 17 0 73 -158 218 -355 324 -38 21
-74 41 -80 45 -5 4 -83 45 -173 90 -89 46 -161 87 -160 91 4 10 334 297 393
341 28 21 82 63 120 93 66 52 157 117 196 140 9 6 24 17 33 24 13 11 26 9 83
-12 98 -36 364 -158 458 -210 44 -24 115 -63 158 -87 86 -46 159 -72 182 -64
48 19 -27 125 -160 230 -66 52 -284 177 -447 256 -32 16 -58 30 -58 32 0 4 35
27 125 83 11 7 27 15 35 19 8 4 35 20 60 35 90 55 427 229 450 233 3 1 25 11
50 23 41 19 119 55 195 88 17 7 60 25 98 39 37 14 82 32 101 41 56 27 440 159
536 185 19 5 53 12 75 16 22 3 42 8 44 10 9 8 167 4 201 -6z m-11833 -471 c26
-4 62 -10 78 -13 17 -3 41 -8 55 -11 52 -10 69 -14 215 -49 83 -20 197 -51
255 -67 58 -17 112 -32 120 -34 8 -2 16 -4 18 -4 1 -1 4 0 5 2 2 1 11 -4 20
-12 10 -7 17 -11 17 -8 0 9 488 -164 585 -208 28 -12 60 -25 73 -29 12 -4 80
-36 152 -72 71 -35 134 -64 140 -64 20 0 9 -16 -23 -36 -18 -10 -109 -71 -202
-134 -187 -126 -332 -259 -374 -342 -60 -119 38 -100 239 45 135 98 349 227
503 303 l75 37 43 -22 c71 -35 155 -85 361 -214 82 -52 418 -290 418 -297 0
-3 -60 -43 -133 -90 -72 -47 -184 -121 -247 -164 -244 -169 -425 -404 -295
-383 32 5 182 88 195 107 21 31 356 234 540 327 l124 63 36 -33 c19 -19 53
-47 75 -63 73 -53 329 -277 448 -394 l117 -115 -157 -105 c-271 -180 -414
-321 -417 -408 -1 -35 0 -37 29 -34 35 4 113 46 205 111 36 25 67 48 70 51 16
17 165 108 269 164 115 62 151 76 151 59 0 -5 28 -38 63 -74 64 -68 76 -82
138 -159 105 -130 222 -297 348 -495 60 -93 200 -390 235 -497 44 -131 68
-265 64 -355 l-3 -68 -461 -3 -462 -2 -93 48 c-83 43 -130 69 -279 150 -19 11
-53 29 -75 41 -22 12 -62 36 -90 52 -27 16 -63 36 -80 43 -16 8 -45 26 -64 40
-19 14 -40 26 -45 26 -6 0 -29 14 -50 30 -22 17 -44 30 -49 30 -5 0 -32 16
-58 35 -27 19 -53 35 -57 35 -5 0 -34 18 -65 40 -30 22 -59 40 -64 40 -5 0
-38 20 -73 45 -35 25 -68 45 -72 45 -5 0 -41 22 -81 49 -39 26 -110 73 -157
103 -233 151 -314 204 -421 278 -64 44 -120 80 -123 80 -4 0 -72 46 -152 103
-79 56 -179 124 -222 150 -96 61 -275 190 -322 232 -19 17 -62 51 -95 75 -33
24 -64 49 -70 55 -5 6 -30 27 -54 46 -25 18 -55 43 -67 54 -12 11 -40 36 -62
55 -141 123 -190 170 -316 296 -150 149 -246 253 -345 374 -82 99 -83 100
-111 140 -13 19 -27 37 -31 40 -3 3 -19 25 -34 50 -15 25 -31 47 -35 50 -15
11 -83 131 -139 245 -195 394 -114 626 216 623 45 0 104 -4 130 -9z m11013
-2834 l0 -955 -85 0 -85 0 0 876 0 877 83 78 c45 43 83 78 85 79 1 0 2 -430 2
-955z m-9513 38 c37 -25 74 -53 81 -62 9 -11 12 -121 12 -473 l0 -458 -85 0
-85 0 0 520 c0 286 2 520 5 520 2 0 35 -21 72 -47z m9643 -2423 l0 -1150 -70
0 c-38 0 -2223 0 -4855 0 -2632 0 -4814 0 -4850 0 l-65 0 0 1150 0 1150 4920
0 4920 0 0 -1150z m-10180 -50 l0 -950 -810 0 c-445 0 -810 2 -810 5 0 3 88
213 195 467 107 253 195 467 195 476 0 8 -86 218 -191 466 -105 248 -194 459
-196 469 -5 16 38 17 806 17 l811 0 0 -950z m12137 933 c-2 -10 -91 -221 -196
-469 -105 -248 -191 -458 -191 -466 0 -9 88 -223 195 -476 107 -254 195 -464
195 -467 0 -3 -364 -5 -810 -5 l-810 0 0 950 0 950 811 0 c768 0 811 -1 806
-17z m-11507 -2927 l0 -613 93 -33 c534 -185 962 -613 1147 -1147 l33 -93
3352 0 3353 0 33 98 c39 113 134 307 201 407 228 342 563 602 946 735 l92 33
0 613 0 614 85 0 85 0 -2 -677 -3 -676 -88 -23 c-292 -78 -564 -240 -780 -464
-208 -216 -347 -460 -421 -737 l-23 -88 -3478 0 -3478 0 -23 87 c-155 582
-620 1047 -1202 1202 l-87 23 -3 676 -2 677 85 0 85 0 0 -614z m4408 95 c8 -5
12 -17 10 -27 -3 -15 -11 -18 -43 -16 -48 4 -68 -13 -83 -70 l-10 -38 39 0
c35 0 39 -3 39 -25 0 -23 -4 -25 -45 -25 -25 0 -45 -2 -45 -5 0 -20 -92 -430
-100 -444 -19 -36 -61 -61 -101 -61 -35 0 -39 3 -39 25 0 22 4 25 35 25 30 0
38 5 50 33 13 27 95 390 95 418 0 5 -13 9 -30 9 -40 0 -39 24 1 36 35 10 39
16 64 87 12 33 27 55 49 68 32 20 91 25 114 10z m-1920 -23 c28 -28 1 -75 -38
-63 -33 11 -21 75 15 75 6 0 16 -5 23 -12z m-1133 -24 c92 -43 81 -195 -17
-245 -24 -12 -44 -22 -46 -24 -1 -1 16 -50 38 -109 22 -58 40 -109 40 -112 0
-3 -14 -4 -32 -2 -31 3 -33 6 -67 105 l-36 103 -45 0 -46 0 -18 -87 c-25 -126
-23 -123 -57 -123 -24 0 -29 4 -25 18 2 9 26 118 51 242 26 124 48 231 50 238
7 19 168 16 210 -4z m439 -129 c36 -33 36 -91 0 -134 -28 -34 -102 -61 -166
-61 -37 0 -38 -1 -38 -36 0 -48 14 -70 52 -83 31 -10 75 -5 121 14 13 6 17 2
17 -18 0 -18 -8 -27 -27 -35 -79 -29 -152 -21 -193 23 -59 63 -34 232 47 306
42 39 63 48 114 49 35 0 52 -6 73 -25z m441 13 c2 -2 2 -14 -2 -26 -5 -20 -10
-21 -57 -16 -72 9 -107 -11 -140 -78 -18 -36 -26 -68 -26 -104 0 -67 6 -81 42
-100 27 -14 53 -14 111 2 13 4 17 -1 17 -20 0 -30 -28 -41 -102 -40 -88 1
-130 49 -129 149 1 103 51 197 126 231 27 13 148 14 160 2z m235 4 c0 -6 -62
-304 -75 -359 -4 -18 -12 -23 -36 -23 -24 0 -29 4 -25 18 3 9 21 93 41 186 20
93 38 173 41 178 6 10 54 11 54 0z m238 -27 c-5 -40 1 -43 28 -14 94 104 217
34 201 -115 -11 -109 -52 -180 -124 -216 -51 -26 -95 -20 -135 17 l-27 26 -5
-24 c-4 -13 -14 -62 -24 -109 -16 -80 -19 -85 -44 -88 -16 -2 -28 1 -28 7 0
18 110 532 116 542 3 5 14 9 26 9 17 0 20 -5 16 -35z m646 10 c36 -33 36 -91
0 -134 -28 -34 -102 -61 -166 -61 -37 0 -38 -1 -38 -36 0 -48 14 -70 52 -83
31 -10 75 -5 121 14 13 6 17 2 17 -18 0 -18 -8 -27 -27 -35 -79 -29 -152 -21
-193 23 -59 63 -34 232 47 306 42 39 63 48 114 49 35 0 52 -6 73 -25z m375 14
c31 -11 37 -23 23 -47 -7 -10 -15 -10 -36 -2 -44 16 -101 12 -120 -9 -30 -33
-16 -61 49 -106 71 -48 92 -83 79 -134 -17 -67 -105 -102 -199 -78 -44 11 -50
15 -53 41 -3 24 -1 28 15 21 80 -33 143 -29 169 10 23 35 10 61 -51 99 -29 19
-60 45 -69 57 -18 27 -21 71 -5 100 27 51 122 74 198 48z m821 -26 c0 -37 0
-37 16 -15 20 29 66 52 104 52 25 0 30 -4 30 -25 0 -22 -5 -25 -32 -25 -78 0
-133 -76 -163 -220 -25 -127 -22 -120 -56 -120 -24 0 -29 4 -25 18 3 9 21 93
41 186 20 93 38 173 41 178 3 4 14 8 25 8 15 0 19 -7 19 -37z m509 19 c53 -28
73 -74 68 -150 -10 -131 -86 -223 -186 -224 -95 0 -142 49 -142 148 0 174 137
292 260 226z m321 -19 c1 -35 2 -37 15 -19 25 33 68 56 105 56 42 -1 65 -17
80 -56 11 -27 12 -28 25 -11 66 90 190 89 210 -1 3 -17 -5 -79 -19 -149 -38
-183 -34 -173 -68 -173 -26 0 -29 3 -25 23 39 154 58 272 48 293 -17 38 -71
33 -115 -10 -39 -39 -51 -71 -81 -206 -19 -90 -22 -95 -48 -98 -33 -4 -33 -7
-2 141 36 170 33 197 -26 197 -62 0 -115 -82 -144 -222 -26 -125 -22 -118 -56
-118 -24 0 -29 4 -25 18 3 9 21 93 41 186 20 93 38 173 41 178 3 4 14 8 25 8
15 0 19 -7 19 -37z m1190 17 c0 -14 -9 -21 -35 -26 -34 -6 -35 -8 -29 -40 8
-43 -10 -94 -45 -128 -23 -22 -43 -30 -90 -35 -105 -13 -125 -63 -29 -76 105
-14 141 -41 141 -105 0 -87 -75 -135 -199 -128 -95 4 -128 26 -132 88 -3 35 1
48 23 70 15 16 39 31 53 35 19 5 22 9 13 18 -22 22 -13 65 19 89 l30 22 -20
21 c-31 33 -35 76 -12 129 32 72 64 86 200 86 104 0 112 -1 112 -20z m200 -17
c0 -37 0 -37 16 -15 20 29 66 52 104 52 25 0 30 -4 30 -25 0 -22 -5 -25 -32
-25 -78 0 -133 -76 -163 -220 -25 -127 -22 -120 -56 -120 -24 0 -29 4 -25 18
3 9 21 93 41 186 20 93 38 173 41 178 3 4 14 8 25 8 15 0 19 -7 19 -37z m503
7 l35 -30 12 30 c12 30 50 43 50 18 0 -7 -17 -94 -38 -193 -35 -163 -41 -180
-60 -183 -19 -3 -22 1 -22 33 l0 37 -31 -31 c-39 -40 -99 -57 -136 -39 -48 23
-65 58 -64 130 1 143 82 257 183 258 27 0 46 -8 71 -30z m337 -7 l0 -37 34 33
c28 27 45 35 85 39 43 4 53 1 75 -21 34 -34 34 -75 -1 -239 -26 -127 -27 -128
-55 -128 -15 0 -28 4 -28 9 0 5 11 61 25 125 29 136 32 191 9 200 -82 32 -156
-52 -189 -214 -25 -127 -22 -120 -56 -120 -24 0 -29 4 -25 18 3 9 21 93 41
186 20 93 38 173 41 178 3 4 14 8 25 8 15 0 19 -7 19 -37z m425 15 c8 -37 35
-256 35 -288 0 -22 21 11 80 127 44 86 85 162 91 170 12 14 59 18 59 5 0 -5
-58 -116 -130 -248 -150 -276 -173 -304 -250 -304 -47 0 -50 2 -50 25 0 23 4
25 41 25 33 0 47 6 69 30 54 57 55 72 26 262 -33 217 -33 218 -1 218 17 0 26
-7 30 -22z"/>
<path d="M6563 8142 l-83 -47 0 -405 0 -405 84 -47 84 -48 192 0 192 0 84 48
83 47 1 103 0 103 -97 -3 -98 -3 -3 -63 -3 -62 -162 2 -162 3 0 325 0 325 162
3 162 2 3 -62 3 -63 98 -3 97 -3 0 103 -1 103 -83 48 -84 47 -193 0 -194 -1
-82 -47z"/>
<path d="M7643 8142 l-83 -47 0 -405 0 -405 84 -47 84 -48 212 0 212 0 84 48
84 47 0 405 0 405 -84 48 -84 47 -213 0 -214 -1 -82 -47z m487 -452 l0 -330
-187 2 -188 3 -3 315 c-1 173 0 320 3 327 3 10 50 13 190 13 l185 0 0 -330z"/>
<path d="M8783 8142 l-83 -47 0 -405 0 -405 84 -47 84 -48 212 0 212 0 84 48
84 47 0 405 0 405 -84 48 -84 47 -213 0 -214 -1 -82 -47z m487 -452 l0 -330
-187 2 -188 3 -3 315 c-1 173 0 320 3 327 3 10 50 13 190 13 l185 0 0 -330z"/>
<path d="M9850 7690 l0 -490 95 0 95 0 0 129 0 130 51 61 50 61 81 -98 c44
-54 114 -140 156 -190 l76 -93 113 0 c62 0 113 3 113 6 0 3 -95 120 -211 261
l-211 255 20 21 c22 25 330 393 351 420 13 16 7 17 -101 17 l-115 0 -178 -215
c-98 -118 -181 -215 -186 -215 -5 0 -9 97 -9 215 l0 215 -95 0 -95 0 0 -490z"/>
<path d="M10950 7690 l0 -490 295 0 296 0 -3 83 -3 82 -197 3 -198 2 0 125 0
125 155 0 155 0 0 85 0 85 -155 0 -155 0 0 110 0 110 198 2 197 3 3 83 3 82
-296 0 -295 0 0 -490z"/>
<path d="M11860 7690 l0 -490 95 0 95 0 2 183 3 182 61 3 61 3 104 -185 104
-186 108 0 c60 0 106 3 104 8 -2 4 -41 72 -87 152 -45 80 -91 159 -102 177
l-19 32 81 46 80 47 0 213 0 212 -80 47 -80 46 -265 0 -265 0 0 -490z m500
185 l0 -135 -155 0 -155 0 0 135 0 135 155 0 155 0 0 -135z"/>
<path d="M12843 8158 c8 -13 80 -141 161 -284 l146 -262 0 -206 0 -206 95 0
95 0 0 207 0 206 159 284 159 283 -106 0 -107 0 -97 -178 c-53 -97 -100 -176
-105 -176 -4 1 -51 81 -103 177 l-95 177 -108 0 -107 0 13 -22z"/>
<path d="M6595 5698 c-7 -22 -35 -156 -35 -167 0 -20 112 -13 147 9 55 33 63
133 13 160 -27 15 -120 13 -125 -2z"/>
<path d="M7068 5580 c-21 -13 -53 -57 -62 -87 -7 -21 -4 -23 29 -23 39 0 105
24 117 43 13 21 9 65 -8 71 -23 9 -57 7 -76 -4z"/>
<path d="M8149 5558 c-38 -39 -65 -96 -73 -158 -12 -82 37 -126 107 -97 67 29
122 202 83 262 -25 38 -75 35 -117 -7z"/>
<path d="M8628 5580 c-21 -13 -53 -57 -62 -87 -7 -21 -4 -23 29 -23 39 0 105
24 117 43 13 21 9 65 -8 71 -23 9 -57 7 -76 -4z"/>
<path d="M10332 5570 c-44 -27 -72 -89 -72 -163 0 -71 10 -92 51 -106 23 -8
38 -7 62 3 42 18 62 41 81 99 46 137 -21 228 -122 167z"/>
<path d="M11749 5585 c-46 -25 -64 -108 -31 -138 48 -43 121 -1 129 74 5 40 2
48 -18 63 -28 19 -46 20 -80 1z"/>
<path d="M11661 5254 c-16 -7 -37 -25 -47 -39 -16 -24 -16 -30 -3 -53 23 -42
94 -51 170 -21 49 19 63 87 21 104 -43 17 -112 21 -141 9z"/>
<path d="M12540 5552 c-43 -43 -60 -92 -60 -174 0 -50 3 -60 25 -74 31 -20 63
-13 99 23 42 41 68 100 73 164 5 48 3 59 -16 78 -34 34 -77 28 -121 -17z"/>
</g>
</svg>
